# MagicaVoxel @ Ephtracy

# group
o 

# material
mtllib vines.mtl
usemtl palette

# normals
vn -1 0 0
vn 1 0 0
vn 0 0 1
vn 0 0 -1
vn 0 -1 0
vn 0 1 0

# texcoords
vt 0.294922 0.5
vt 0.298828 0.5

# verts
v -0.3 3.8 -0.1
v -0.3 3.8 -0.2
v -0.3 3.9 -0.1
v -0.3 3.9 -0.2
v -0.3 6.3 -0.1
v -0.3 6.3 -0.2
v -0.3 6.4 -0.1
v -0.3 6.4 -0.2
v -0.3 7.1 0
v -0.3 7.1 -0.1
v -0.3 7.2 0
v -0.3 7.2 -0.1
v -0.2 3.7 -0.1
v -0.2 3.7 -0.3
v -0.2 3.8 -0.1
v -0.2 3.8 -0.2
v -0.2 3.9 -0.1
v -0.2 3.9 -0.2
v -0.2 6.3 -0.1
v -0.2 6.3 -0.2
v -0.2 6.4 -0.1
v -0.2 6.4 -0.2
v -0.2 6.5 0.1
v -0.2 6.5 -0.1
v -0.2 6.5 -0.3
v -0.2 7.1 0
v -0.2 7.1 -0.1
v -0.2 7.2 0
v -0.2 7.2 -0.1
v -0.2 8.3 0.1
v -0.2 8.3 -0.1
v -0.1 -4.1 -0.1
v -0.1 -4.1 -0.2
v -0.1 -4 -0.1
v -0.1 -4 -0.2
v -0.1 2.4 0
v -0.1 2.4 -0.1
v -0.1 2.5 0
v -0.1 2.5 -0.1
v -0.1 5.2 -0.3
v -0.1 5.2 -0.4
v -0.1 5.3 -0.3
v -0.1 5.3 -0.4
v 0 -4.3 -0.1
v 0 -4.3 -0.3
v 0 -4.1 -0.1
v 0 -4.1 -0.2
v 0 -4 -0.1
v 0 -4 -0.2
v 0 -1.7 0.1
v 0 -1.7 -0.1
v 0 -1.1 -0.1
v 0 -1.1 -0.3
v 0 -0.9 -0.1
v 0 -0.9 -0.2
v 0 -0.8 -0.1
v 0 -0.8 -0.2
v 0 -0.2 0.2
v 0 -0.2 0.1
v 0 -0.0999999 0.2
v 0 -0.0999999 0.1
v 0 0.5 0.1
v 0 0.5 -0.1
v 0 2.1 0.1
v 0 2.1 -0.1
v 0 2.4 0
v 0 2.4 -0.1
v 0 2.5 0
v 0 2.5 -0.1
v 0 3.7 -0.1
v 0 4.5 0.1
v 0 4.5 -0.1
v 0.2 0.5 0.1
v 0.2 0.5 -0.1
v 0.2 0.7 -0.1
v 0.2 0.7 -0.2
v 0.2 0.8 -0.1
v 0.2 0.8 -0.2
v 0.2 2.1 0.1
v 0.2 2.1 -0.1
v 0 3.7 -0.1
v 0 3.7 -0.3
v 0 4.5 -0.1
v 0 5.2 -0.3
v 0 5.2 -0.4
v 0 5.3 -0.3
v 0 5.3 -0.4
v 0 6.5 0.1
v 0 6.5 -0.1
v 0 6.5 -0.3
v 0 7.7 0
v 0 7.7 -0.1
v 0 7.8 0
v 0 7.8 -0.1
v 0 8.3 0.1
v 0 8.3 -0.1
v 0.1 -0.9 -0.1
v 0.1 -0.9 -0.2
v 0.1 -0.8 -0.1
v 0.1 -0.8 -0.2
v 0.1 -0.2 0.2
v 0.1 -0.2 0.1
v 0.1 -0.0999999 0.2
v 0.1 -0.0999999 0.1
v 0.1 7.7 0
v 0.1 7.7 -0.1
v 0.1 7.8 0
v 0.1 7.8 -0.1
v 0.2 -4.3 -0.1
v 0.2 -4.3 -0.3
v 0.2 -2.9 -0.2
v 0.2 -2.9 -0.3
v 0.2 -2.8 -0.2
v 0.2 -2.8 -0.3
v 0.2 -1.7 0
v 0.2 -1.7 -0.1
v 0.2 -1.6 0.1
v 0.2 -1.6 0
v 0.2 -1.1 -0.1
v 0.2 -1.1 -0.3
v 0.2 0.5 0.1
v 0.2 0.5 -0.1
v 0.2 2.1 0.1
v 0.2 2.1 -0.1
v 0.2 3.7 0
v 0.2 3.7 -0.1
v 0.2 3.8 0
v 0.2 3.8 -0.1
v 0.2 4.5 0.1
v 0.2 4.5 -0.1
v 0.3 -2.9 -0.2
v 0.3 -2.9 -0.3
v 0.3 -2.8 -0.2
v 0.3 -2.8 -0.3
v 0.3 -1.7 0.1
v 0.3 -1.7 0
v 0.3 -1.6 0.1
v 0.3 -1.6 0
v 0.3 0.7 -0.1
v 0.3 0.7 -0.2
v 0.3 0.8 -0.1
v 0.3 0.8 -0.2
v 0.3 3.7 0
v 0.3 3.7 -0.1
v 0.3 3.8 0
v 0.3 3.8 -0.1
v 0.4 0.5 0.1
v 0.4 0.5 -0.1
v 0.4 1.4 0.1
v 0.4 1.4 0
v 0.4 1.5 0.1
v 0.4 1.5 0
v 0.4 2.1 0.1
v 0.4 2.1 -0.1
v 0.5 1.4 0.1
v 0.5 1.4 0
v 0.5 1.5 0.1
v 0.5 1.5 0
v 0 -0.2 0.2
v 0 -0.0999999 0.2
v 0.1 -0.2 0.2
v 0.1 -0.0999999 0.2
v -0.2 6.5 0.1
v -0.2 8.3 0.1
v 0 -1.7 0.1
v 0 -0.2 0.1
v 0 -0.0999999 0.1
v 0 0.5 0.1
v 0 2.1 0.1
v 0 4.5 0.1
v 0 6.5 0.1
v 0 8.3 0.1
v 0.1 -0.2 0.1
v 0.1 -0.0999999 0.1
v 0.2 -1.7 0.1
v 0.2 -1.6 0.1
v 0.2 0.5 0.1
v 0.2 2.1 0.1
v 0.2 4.5 0.1
v 0.3 -1.7 0.1
v 0.3 -1.6 0.1
v 0.4 0.5 0.1
v 0.4 1.4 0.1
v 0.4 1.5 0.1
v 0.4 2.1 0.1
v 0.5 1.4 0.1
v 0.5 1.5 0.1
v -0.3 7.1 0
v -0.3 7.2 0
v -0.2 7.1 0
v -0.2 7.2 0
v -0.1 2.4 0
v -0.1 2.5 0
v 0 2.4 0
v 0 2.5 0
v 0 7.7 0
v 0 7.8 0
v 0.1 7.7 0
v 0.1 7.8 0
v 0.2 3.7 0
v 0.2 3.8 0
v 0.3 3.7 0
v 0.3 3.8 0
v -0.3 3.8 -0.1
v -0.3 3.9 -0.1
v -0.3 6.3 -0.1
v -0.3 6.4 -0.1
v -0.2 3.7 -0.1
v -0.2 3.8 -0.1
v -0.2 3.9 -0.1
v -0.2 6.3 -0.1
v -0.2 6.4 -0.1
v -0.2 6.5 -0.1
v -0.1 -4.1 -0.1
v -0.1 -4 -0.1
v 0 -4.3 -0.1
v 0 -4.1 -0.1
v 0 -4 -0.1
v 0 -1.7 -0.1
v 0 3.7 -0.1
v 0 4.5 -0.1
v 0 6.5 -0.1
v 0.2 -4.3 -0.1
v 0.2 -1.7 -0.1
v 0.2 -2.9 -0.2
v 0.2 -2.8 -0.2
v 0.3 -2.9 -0.2
v 0.3 -2.8 -0.2
v 0.2 -1.7 0
v 0.2 -1.6 0
v 0.3 -1.7 0
v 0.3 -1.6 0
v 0.4 1.4 0
v 0.4 1.5 0
v 0.5 1.4 0
v 0.5 1.5 0
v -0.3 7.1 -0.1
v -0.3 7.2 -0.1
v -0.2 6.5 -0.1
v -0.2 7.1 -0.1
v -0.2 7.2 -0.1
v -0.2 8.3 -0.1
v -0.1 2.4 -0.1
v -0.1 2.5 -0.1
v 0 -1.1 -0.1
v 0 -0.9 -0.1
v 0 -0.8 -0.1
v 0 0.5 -0.1
v 0 2.1 -0.1
v 0 2.4 -0.1
v 0 2.5 -0.1
v 0 3.7 -0.1
v 0 4.5 -0.1
v 0 6.5 -0.1
v 0 7.7 -0.1
v 0 7.8 -0.1
v 0 8.3 -0.1
v 0.1 -0.9 -0.1
v 0.1 -0.8 -0.1
v 0.1 7.7 -0.1
v 0.1 7.8 -0.1
v 0.2 -1.1 -0.1
v 0.2 0.5 -0.1
v 0.2 0.7 -0.1
v 0.2 0.8 -0.1
v 0.2 2.1 -0.1
v 0.2 3.7 -0.1
v 0.2 3.8 -0.1
v 0.2 4.5 -0.1
v 0.3 0.7 -0.1
v 0.3 0.8 -0.1
v 0.3 3.7 -0.1
v 0.3 3.8 -0.1
v 0.4 0.5 -0.1
v 0.4 2.1 -0.1
v -0.3 3.8 -0.2
v -0.3 3.9 -0.2
v -0.3 6.3 -0.2
v -0.3 6.4 -0.2
v -0.2 3.8 -0.2
v -0.2 3.9 -0.2
v -0.2 6.3 -0.2
v -0.2 6.4 -0.2
v -0.1 -4.1 -0.2
v -0.1 -4 -0.2
v 0 -4.1 -0.2
v 0 -4 -0.2
v 0 -0.9 -0.2
v 0 -0.8 -0.2
v 0.1 -0.9 -0.2
v 0.1 -0.8 -0.2
v 0.2 0.7 -0.2
v 0.2 0.8 -0.2
v 0.3 0.7 -0.2
v 0.3 0.8 -0.2
v -0.2 3.7 -0.3
v -0.2 6.5 -0.3
v -0.1 5.2 -0.3
v -0.1 5.3 -0.3
v 0 -4.3 -0.3
v 0 -1.1 -0.3
v 0 3.7 -0.3
v 0 5.2 -0.3
v 0 5.3 -0.3
v 0 6.5 -0.3
v 0.2 -4.3 -0.3
v 0.2 -2.9 -0.3
v 0.2 -2.8 -0.3
v 0.2 -1.1 -0.3
v 0.3 -2.9 -0.3
v 0.3 -2.8 -0.3
v -0.1 5.2 -0.4
v -0.1 5.3 -0.4
v 0 5.2 -0.4
v 0 5.3 -0.4
v 0 -4.3 -0.1
v 0.2 -4.3 -0.1
v 0 -4.3 -0.3
v 0.2 -4.3 -0.3
v -0.1 -4.1 -0.1
v 0 -4.1 -0.1
v -0.1 -4.1 -0.2
v 0 -4.1 -0.2
v 0.2 -2.9 -0.2
v 0.3 -2.9 -0.2
v 0.2 -2.9 -0.3
v 0.3 -2.9 -0.3
v 0 -1.7 0.1
v 0.2 -1.7 0.1
v 0.3 -1.7 0.1
v 0.2 -1.7 0
v 0.3 -1.7 0
v 0 -1.7 -0.1
v 0.2 -1.7 -0.1
v 0 -0.9 -0.1
v 0.1 -0.9 -0.1
v 0 -0.9 -0.2
v 0.1 -0.9 -0.2
v 0 -0.2 0.2
v 0.1 -0.2 0.2
v 0 -0.2 0.1
v 0.1 -0.2 0.1
v 0.2 0.5 0.1
v 0.4 0.5 0.1
v 0.2 0.5 -0.1
v 0.4 0.5 -0.1
v 0.2 0.7 -0.1
v 0.3 0.7 -0.1
v 0.2 0.7 -0.2
v 0.3 0.7 -0.2
v 0.4 1.4 0.1
v 0.5 1.4 0.1
v 0.4 1.4 0
v 0.5 1.4 0
v 0 2.1 0.1
v 0.2 2.1 0.1
v 0 2.1 -0.1
v 0.2 2.1 -0.1
v -0.1 2.4 0
v 0 2.4 0
v -0.1 2.4 -0.1
v 0 2.4 -0.1
v 0.2 3.7 0
v 0.3 3.7 0
v -0.2 3.7 -0.1
v 0 3.7 -0.1
v 0.2 3.7 -0.1
v 0.3 3.7 -0.1
v -0.2 3.7 -0.3
v 0 3.7 -0.3
v -0.3 3.8 -0.1
v -0.2 3.8 -0.1
v -0.3 3.8 -0.2
v -0.2 3.8 -0.2
v -0.1 5.2 -0.3
v 0 5.2 -0.3
v -0.1 5.2 -0.4
v 0 5.2 -0.4
v -0.3 6.3 -0.1
v -0.2 6.3 -0.1
v -0.3 6.3 -0.2
v -0.2 6.3 -0.2
v -0.2 6.5 0.1
v 0 6.5 0.1
v -0.2 6.5 -0.1
v 0 6.5 -0.1
v -0.3 7.1 0
v -0.2 7.1 0
v -0.3 7.1 -0.1
v -0.2 7.1 -0.1
v 0 7.7 0
v 0.1 7.7 0
v 0 7.7 -0.1
v 0.1 7.7 -0.1
v -0.1 -4 -0.1
v 0 -4 -0.1
v -0.1 -4 -0.2
v 0 -4 -0.2
v 0.2 -2.8 -0.2
v 0.3 -2.8 -0.2
v 0.2 -2.8 -0.3
v 0.3 -2.8 -0.3
v 0.2 -1.6 0.1
v 0.3 -1.6 0.1
v 0.2 -1.6 0
v 0.3 -1.6 0
v 0 -1.1 -0.1
v 0.2 -1.1 -0.1
v 0 -1.1 -0.3
v 0.2 -1.1 -0.3
v 0 -0.8 -0.1
v 0.1 -0.8 -0.1
v 0 -0.8 -0.2
v 0.1 -0.8 -0.2
v 0 -0.0999999 0.2
v 0.1 -0.0999999 0.2
v 0 -0.0999999 0.1
v 0.1 -0.0999999 0.1
v 0 0.5 0.1
v 0.2 0.5 0.1
v 0 0.5 -0.1
v 0.2 0.5 -0.1
v 0.2 0.8 -0.1
v 0.3 0.8 -0.1
v 0.2 0.8 -0.2
v 0.3 0.8 -0.2
v 0.4 1.5 0.1
v 0.5 1.5 0.1
v 0.4 1.5 0
v 0.5 1.5 0
v 0.2 2.1 0.1
v 0.4 2.1 0.1
v 0.2 2.1 -0.1
v 0.4 2.1 -0.1
v -0.1 2.5 0
v 0 2.5 0
v -0.1 2.5 -0.1
v 0 2.5 -0.1
v 0.2 3.8 0
v 0.3 3.8 0
v 0.2 3.8 -0.1
v 0.3 3.8 -0.1
v -0.3 3.9 -0.1
v -0.2 3.9 -0.1
v -0.3 3.9 -0.2
v -0.2 3.9 -0.2
v 0 4.5 0.1
v 0.2 4.5 0.1
v 0 4.5 -0.1
v 0.2 4.5 -0.1
v -0.1 5.3 -0.3
v 0 5.3 -0.3
v -0.1 5.3 -0.4
v 0 5.3 -0.4
v -0.3 6.4 -0.1
v -0.2 6.4 -0.1
v -0.3 6.4 -0.2
v -0.2 6.4 -0.2
v -0.2 6.5 -0.1
v 0 6.5 -0.1
v -0.2 6.5 -0.3
v 0 6.5 -0.3
v -0.3 7.2 0
v -0.2 7.2 0
v -0.3 7.2 -0.1
v -0.2 7.2 -0.1
v 0 7.8 0
v 0.1 7.8 0
v 0 7.8 -0.1
v 0.1 7.8 -0.1
v -0.2 8.3 0.1
v 0 8.3 0.1
v -0.2 8.3 -0.1
v 0 8.3 -0.1

# faces
f 3/2/1 2/2/1 1/2/1
f 4/2/1 2/2/1 3/2/1
f 7/2/1 6/2/1 5/2/1
f 8/2/1 6/2/1 7/2/1
f 11/2/1 10/2/1 9/2/1
f 12/2/1 10/2/1 11/2/1
f 15/1/1 14/1/1 13/1/1
f 16/1/1 14/1/1 15/1/1
f 18/1/1 14/1/1 16/1/1
f 19/1/1 18/1/1 17/1/1
f 20/1/1 14/1/1 18/1/1
f 20/1/1 18/1/1 19/1/1
f 22/1/1 14/1/1 20/1/1
f 24/1/1 22/1/1 21/1/1
f 25/1/1 14/1/1 22/1/1
f 25/1/1 22/1/1 24/1/1
f 26/1/1 24/1/1 23/1/1
f 27/1/1 24/1/1 26/1/1
f 28/1/1 26/1/1 23/1/1
f 30/1/1 28/1/1 23/1/1
f 30/1/1 29/1/1 28/1/1
f 31/1/1 29/1/1 30/1/1
f 34/2/1 33/2/1 32/2/1
f 35/2/1 33/2/1 34/2/1
f 38/2/1 37/2/1 36/2/1
f 39/2/1 37/2/1 38/2/1
f 42/2/1 41/2/1 40/2/1
f 43/2/1 41/2/1 42/2/1
f 46/1/1 45/1/1 44/1/1
f 47/1/1 45/1/1 46/1/1
f 49/1/1 45/1/1 47/1/1
f 51/1/1 49/1/1 48/1/1
f 52/1/1 49/1/1 51/1/1
f 52/1/1 51/1/1 50/1/1
f 53/1/1 45/1/1 49/1/1
f 53/1/1 49/1/1 52/1/1
f 54/1/1 52/1/1 50/1/1
f 56/1/1 54/1/1 50/1/1
f 56/2/1 55/2/1 54/2/1
f 57/2/1 55/2/1 56/2/1
f 59/1/1 56/1/1 50/1/1
f 60/2/1 59/2/1 58/2/1
f 61/1/1 56/1/1 59/1/1
f 61/2/1 59/2/1 60/2/1
f 62/1/1 56/1/1 61/1/1
f 63/1/1 56/1/1 62/1/1
f 66/1/1 65/1/1 64/1/1
f 67/1/1 65/1/1 66/1/1
f 68/1/1 66/1/1 64/1/1
f 70/1/1 69/1/1 68/1/1
f 71/1/1 68/1/1 64/1/1
f 71/1/1 70/1/1 68/1/1
f 72/1/1 70/1/1 71/1/1
f 75/1/1 74/1/1 73/1/1
f 77/1/1 75/1/1 73/1/1
f 77/2/1 76/2/1 75/2/1
f 78/2/1 76/2/1 77/2/1
f 79/1/1 77/1/1 73/1/1
f 80/1/1 77/1/1 79/1/1
f 81/1/2 82/1/2 83/1/2
f 83/1/2 82/1/2 84/1/2
f 83/1/2 84/1/2 86/1/2
f 84/2/2 85/2/2 86/2/2
f 86/2/2 85/2/2 87/2/2
f 83/1/2 86/1/2 89/1/2
f 89/1/2 86/1/2 90/1/2
f 88/1/2 89/1/2 91/1/2
f 91/1/2 89/1/2 92/1/2
f 88/1/2 91/1/2 93/1/2
f 88/1/2 93/1/2 95/1/2
f 93/1/2 94/1/2 95/1/2
f 95/1/2 94/1/2 96/1/2
f 97/2/2 98/2/2 99/2/2
f 99/2/2 98/2/2 100/2/2
f 101/2/2 102/2/2 103/2/2
f 103/2/2 102/2/2 104/2/2
f 105/2/2 106/2/2 107/2/2
f 107/2/2 106/2/2 108/2/2
f 109/1/2 110/1/2 111/1/2
f 111/1/2 110/1/2 112/1/2
f 109/1/2 111/1/2 113/1/2
f 109/1/2 113/1/2 116/1/2
f 113/1/2 114/1/2 116/1/2
f 115/1/2 116/1/2 118/1/2
f 116/1/2 114/1/2 119/1/2
f 117/1/2 118/1/2 119/1/2
f 118/1/2 116/1/2 119/1/2
f 119/1/2 114/1/2 120/1/2
f 117/1/2 119/1/2 121/1/2
f 121/1/2 119/1/2 122/1/2
f 123/1/2 124/1/2 125/1/2
f 125/1/2 124/1/2 126/1/2
f 123/1/2 125/1/2 127/1/2
f 123/1/2 127/1/2 129/1/2
f 127/1/2 128/1/2 129/1/2
f 129/1/2 128/1/2 130/1/2
f 131/2/2 132/2/2 133/2/2
f 133/2/2 132/2/2 134/2/2
f 135/2/2 136/2/2 137/2/2
f 137/2/2 136/2/2 138/2/2
f 139/2/2 140/2/2 141/2/2
f 141/2/2 140/2/2 142/2/2
f 143/2/2 144/2/2 145/2/2
f 145/2/2 144/2/2 146/2/2
f 147/1/2 148/1/2 149/1/2
f 149/1/2 148/1/2 150/1/2
f 150/1/2 148/1/2 152/1/2
f 151/1/2 152/1/2 153/1/2
f 152/1/2 148/1/2 154/1/2
f 153/1/2 152/1/2 154/1/2
f 155/2/2 156/2/2 157/2/2
f 157/2/2 156/2/2 158/2/2
f 161/2/3 160/2/3 159/2/3
f 162/2/3 160/2/3 161/2/3
f 171/1/3 164/1/3 163/1/3
f 172/1/3 164/1/3 171/1/3
f 173/1/3 166/1/3 165/1/3
f 174/1/3 168/1/3 167/1/3
f 175/1/3 173/1/3 165/1/3
f 175/1/3 174/1/3 173/1/3
f 176/1/3 174/1/3 175/1/3
f 177/1/3 168/1/3 174/1/3
f 177/1/3 174/1/3 176/1/3
f 178/1/3 170/1/3 169/1/3
f 179/1/3 170/1/3 178/1/3
f 180/2/3 176/2/3 175/2/3
f 181/2/3 176/2/3 180/2/3
f 182/1/3 178/1/3 177/1/3
f 183/1/3 178/1/3 182/1/3
f 184/1/3 178/1/3 183/1/3
f 185/1/3 178/1/3 184/1/3
f 186/2/3 184/2/3 183/2/3
f 187/2/3 184/2/3 186/2/3
f 190/2/3 189/2/3 188/2/3
f 191/2/3 189/2/3 190/2/3
f 194/2/3 193/2/3 192/2/3
f 195/2/3 193/2/3 194/2/3
f 198/2/3 197/2/3 196/2/3
f 199/2/3 197/2/3 198/2/3
f 202/2/3 201/2/3 200/2/3
f 203/2/3 201/2/3 202/2/3
f 209/2/3 205/2/3 204/2/3
f 210/2/3 205/2/3 209/2/3
f 211/2/3 207/2/3 206/2/3
f 212/2/3 207/2/3 211/2/3
f 217/2/3 215/2/3 214/2/3
f 218/2/3 215/2/3 217/2/3
f 220/1/3 210/1/3 209/1/3
f 220/1/3 209/1/3 208/1/3
f 220/1/3 211/1/3 210/1/3
f 220/1/3 212/1/3 211/1/3
f 220/1/3 213/1/3 212/1/3
f 221/1/3 213/1/3 220/1/3
f 222/1/3 213/1/3 221/1/3
f 223/1/3 219/1/3 218/1/3
f 223/1/3 218/1/3 217/1/3
f 223/1/3 217/1/3 216/1/3
f 224/1/3 219/1/3 223/1/3
f 227/2/3 226/2/3 225/2/3
f 228/2/3 226/2/3 227/2/3
f 229/2/4 230/2/4 231/2/4
f 231/2/4 230/2/4 232/2/4
f 233/2/4 234/2/4 235/2/4
f 235/2/4 234/2/4 236/2/4
f 237/2/4 238/2/4 240/2/4
f 240/2/4 238/2/4 241/2/4
f 243/2/4 244/2/4 250/2/4
f 250/2/4 244/2/4 251/2/4
f 239/1/4 240/1/4 254/1/4
f 240/1/4 241/1/4 254/1/4
f 241/1/4 242/1/4 254/1/4
f 254/1/4 242/1/4 255/1/4
f 255/1/4 242/1/4 256/1/4
f 256/1/4 242/1/4 257/1/4
f 245/1/4 246/1/4 258/1/4
f 247/1/4 248/1/4 259/1/4
f 255/2/4 256/2/4 260/2/4
f 260/2/4 256/2/4 261/2/4
f 245/1/4 258/1/4 262/1/4
f 258/1/4 259/1/4 262/1/4
f 259/1/4 248/1/4 263/1/4
f 262/1/4 259/1/4 263/1/4
f 252/1/4 253/1/4 266/1/4
f 251/1/4 252/1/4 266/1/4
f 250/1/4 251/1/4 266/1/4
f 249/1/4 250/1/4 266/1/4
f 266/1/4 253/1/4 267/1/4
f 267/1/4 253/1/4 268/1/4
f 268/1/4 253/1/4 269/1/4
f 263/1/4 264/1/4 270/1/4
f 265/1/4 266/1/4 271/1/4
f 267/2/4 268/2/4 272/2/4
f 272/2/4 268/2/4 273/2/4
f 270/1/4 271/1/4 274/1/4
f 263/1/4 270/1/4 274/1/4
f 271/1/4 266/1/4 275/1/4
f 274/1/4 271/1/4 275/1/4
f 276/2/4 277/2/4 280/2/4
f 280/2/4 277/2/4 281/2/4
f 278/2/4 279/2/4 282/2/4
f 282/2/4 279/2/4 283/2/4
f 284/2/4 285/2/4 286/2/4
f 286/2/4 285/2/4 287/2/4
f 288/2/4 289/2/4 290/2/4
f 290/2/4 289/2/4 291/2/4
f 292/2/4 293/2/4 294/2/4
f 294/2/4 293/2/4 295/2/4
f 296/1/4 297/1/4 298/1/4
f 298/1/4 297/1/4 299/1/4
f 296/1/4 298/1/4 302/1/4
f 302/1/4 298/1/4 303/1/4
f 299/1/4 297/1/4 304/1/4
f 304/1/4 297/1/4 305/1/4
f 300/1/4 301/1/4 306/1/4
f 306/1/4 301/1/4 307/1/4
f 307/1/4 301/1/4 308/1/4
f 308/1/4 301/1/4 309/1/4
f 307/2/4 308/2/4 310/2/4
f 310/2/4 308/2/4 311/2/4
f 312/2/4 313/2/4 314/2/4
f 314/2/4 313/2/4 315/2/4
f 318/1/5 317/1/5 316/1/5
f 319/1/5 317/1/5 318/1/5
f 322/2/5 321/2/5 320/2/5
f 323/2/5 321/2/5 322/2/5
f 326/2/5 325/2/5 324/2/5
f 327/2/5 325/2/5 326/2/5
f 331/1/5 329/1/5 328/1/5
f 331/2/5 330/2/5 329/2/5
f 332/2/5 330/2/5 331/2/5
f 333/1/5 331/1/5 328/1/5
f 334/1/5 331/1/5 333/1/5
f 337/2/5 336/2/5 335/2/5
f 338/2/5 336/2/5 337/2/5
f 341/2/5 340/2/5 339/2/5
f 342/2/5 340/2/5 341/2/5
f 345/1/5 344/1/5 343/1/5
f 346/1/5 344/1/5 345/1/5
f 349/2/5 348/2/5 347/2/5
f 350/2/5 348/2/5 349/2/5
f 353/2/5 352/2/5 351/2/5
f 354/2/5 352/2/5 353/2/5
f 357/1/5 356/1/5 355/1/5
f 358/1/5 356/1/5 357/1/5
f 361/2/5 360/2/5 359/2/5
f 362/2/5 360/2/5 361/2/5
f 367/2/5 364/2/5 363/2/5
f 368/2/5 364/2/5 367/2/5
f 369/1/5 366/1/5 365/1/5
f 370/1/5 366/1/5 369/1/5
f 373/2/5 372/2/5 371/2/5
f 374/2/5 372/2/5 373/2/5
f 377/2/5 376/2/5 375/2/5
f 378/2/5 376/2/5 377/2/5
f 381/2/5 380/2/5 379/2/5
f 382/2/5 380/2/5 381/2/5
f 385/1/5 384/1/5 383/1/5
f 386/1/5 384/1/5 385/1/5
f 389/2/5 388/2/5 387/2/5
f 390/2/5 388/2/5 389/2/5
f 393/2/5 392/2/5 391/2/5
f 394/2/5 392/2/5 393/2/5
f 395/2/6 396/2/6 397/2/6
f 397/2/6 396/2/6 398/2/6
f 399/2/6 400/2/6 401/2/6
f 401/2/6 400/2/6 402/2/6
f 403/2/6 404/2/6 405/2/6
f 405/2/6 404/2/6 406/2/6
f 407/1/6 408/1/6 409/1/6
f 409/1/6 408/1/6 410/1/6
f 411/2/6 412/2/6 413/2/6
f 413/2/6 412/2/6 414/2/6
f 415/2/6 416/2/6 417/2/6
f 417/2/6 416/2/6 418/2/6
f 419/1/6 420/1/6 421/1/6
f 421/1/6 420/1/6 422/1/6
f 423/2/6 424/2/6 425/2/6
f 425/2/6 424/2/6 426/2/6
f 427/2/6 428/2/6 429/2/6
f 429/2/6 428/2/6 430/2/6
f 431/1/6 432/1/6 433/1/6
f 433/1/6 432/1/6 434/1/6
f 435/2/6 436/2/6 437/2/6
f 437/2/6 436/2/6 438/2/6
f 439/2/6 440/2/6 441/2/6
f 441/2/6 440/2/6 442/2/6
f 443/2/6 444/2/6 445/2/6
f 445/2/6 444/2/6 446/2/6
f 447/1/6 448/1/6 449/1/6
f 449/1/6 448/1/6 450/1/6
f 451/2/6 452/2/6 453/2/6
f 453/2/6 452/2/6 454/2/6
f 455/2/6 456/2/6 457/2/6
f 457/2/6 456/2/6 458/2/6
f 459/1/6 460/1/6 461/1/6
f 461/1/6 460/1/6 462/1/6
f 463/2/6 464/2/6 465/2/6
f 465/2/6 464/2/6 466/2/6
f 467/2/6 468/2/6 469/2/6
f 469/2/6 468/2/6 470/2/6
f 471/1/6 472/1/6 473/1/6
f 473/1/6 472/1/6 474/1/6
